# xmcd
#
# Track frame offsets:
#	150
#	16322
#	34585
#	53027
#
# Disc length: 973 seconds
#
# Revision: 1
# Processed by: cddbd v1.5.1PL0 Copyright (c) Steve Scherf et al.
# Submitted via: CDex 1.50Beta5
#
DISCID=2503cb04
DTITLE=吉川晃司 - WINTER GREETING
DYEAR=1900
DGENRE=Pop
TTITLE0=STARDUST KISS
TTITLE1=もしも君が僕ならば
TTITLE2=見上げてごらん夜の星を
TTITLE3=Ever Blue
EXTD=
EXTT0=
EXTT1=
EXTT2=
EXTT3=
PLAYORDER=
